<?xml version="1.0" standalone="no"?>
<!DOCTYPE svg PUBLIC "-//W3C//DTD SVG 20010904//EN"
 "http://www.w3.org/TR/2001/REC-SVG-20010904/DTD/svg10.dtd">
<svg version="1.0" xmlns="http://www.w3.org/2000/svg"
 width="648.000000pt" height="264.000000pt" viewBox="0 0 648.000000 264.000000"
 preserveAspectRatio="xMidYMid meet">
<metadata>
Created by potrace 1.15, written by Peter Selinger 2001-2017
</metadata>
<g transform="translate(0.000000,264.000000) scale(0.100000,-0.100000)"
fill="#000000" stroke="none">
<path d="M1559 2359 c-10 -6 392 -689 407 -692 9 -2 84 121 84 138 0 8 -304
542 -314 553 -6 5 -168 7 -177 1z"/>
<path d="M2564 2355 c-13 -11 -435 -729 -479 -815 -25 -49 -25 -52 -25 -295
l0 -245 85 0 85 0 0 246 0 245 246 412 c136 227 252 422 260 434 13 21 13 22
-73 25 -48 2 -92 -1 -99 -7z"/>
<path d="M3177 2349 c-80 -27 -125 -57 -185 -124 -76 -86 -123 -192 -159 -356
-26 -121 -26 -438 0 -524 72 -232 243 -365 472 -365 297 1 525 259 477 541
-32 187 -170 331 -358 375 -168 39 -330 -18 -425 -149 l-29 -40 0 47 c0 26 7
82 16 124 44 218 168 345 334 344 114 0 223 -58 280 -148 l27 -43 52 53 52 52
-29 40 c-40 54 -112 118 -161 143 -104 53 -260 66 -364 30z m261 -608 c66 -34
128 -96 159 -160 57 -116 30 -264 -67 -361 -159 -159 -416 -112 -522 94 -29
57 -36 167 -14 233 31 93 108 172 204 208 56 22 186 14 240 -14z"/>
<path d="M5575 2364 c-193 -41 -349 -150 -443 -309 -46 -79 -81 -175 -89 -247
l-6 -48 85 0 85 0 22 83 c40 152 132 271 254 328 195 91 432 33 536 -130 18
-28 35 -51 36 -51 2 0 33 19 69 41 l66 41 -22 41 c-36 65 -137 159 -211 195
-37 18 -97 39 -134 47 -63 14 -201 18 -248 9z"/>
<path d="M380 2285 l0 -75 338 0 337 0 68 75 68 75 -405 0 -406 0 0 -75z"/>
<path d="M1283 2253 c-49 -60 -275 -334 -501 -611 l-412 -504 0 -69 0 -69 36
0 c32 0 44 8 102 71 36 39 263 316 504 616 l438 545 0 64 0 64 -38 0 c-37 0
-43 -5 -129 -107z"/>
<path d="M4040 1845 l0 -515 85 0 85 0 0 515 0 515 -85 0 -85 0 0 -515z"/>
<path d="M5045 1553 c11 -76 63 -200 119 -282 90 -132 253 -246 386 -271 238
-45 514 60 629 238 17 27 31 53 31 58 0 6 -31 26 -68 47 l-69 37 -33 -51
c-112 -173 -355 -237 -548 -143 -121 58 -238 214 -272 362 l-12 52 -85 0 -85
0 7 -47z"/>
<path d="M701 1081 c-34 -38 -61 -71 -61 -75 0 -3 182 -6 405 -6 l405 0 0 75
0 75 -344 0 -344 0 -61 -69z"/>
<path d="M4040 1075 l0 -75 465 0 465 0 0 75 0 75 -465 0 -465 0 0 -75z"/>
<path d="M3537 567 c-21 -100 -41 -192 -44 -204 -4 -20 -1 -23 25 -23 29 0 31
3 42 58 21 105 30 128 57 154 36 32 60 40 84 28 23 -13 25 -59 4 -145 -21 -87
-20 -95 13 -95 28 0 28 1 51 118 24 127 20 165 -21 178 -32 10 -85 -5 -118
-32 -34 -30 -35 -29 -15 51 21 87 20 95 -12 95 l-28 0 -38 -183z"/>
<path d="M1472 728 c3 -7 22 -65 43 -128 l38 -115 -15 -73 -14 -73 30 3 c29 3
31 6 46 74 15 65 25 83 114 198 l97 126 -34 0 c-31 0 -39 -7 -106 -100 -40
-55 -74 -100 -76 -100 -1 0 -15 45 -30 100 l-28 100 -35 0 c-23 0 -33 -4 -30
-12z"/>
<path d="M5004 689 c-5 -30 -13 -43 -30 -50 -27 -10 -34 -49 -9 -49 19 0 19 2
-6 -110 -11 -52 -18 -104 -15 -116 11 -44 118 -40 124 4 3 19 -1 22 -29 22
l-32 0 6 48 c3 26 11 70 17 99 11 48 14 52 43 55 24 2 33 8 35 26 3 18 -1 22
-26 22 -29 0 -30 1 -21 38 12 52 12 52 -21 52 -27 0 -30 -4 -36 -41z"/>
<path d="M1905 626 c-70 -31 -124 -129 -111 -201 25 -131 215 -118 277 20 23
49 24 84 4 131 -23 56 -102 80 -170 50z m95 -56 c27 -27 34 -63 20 -104 -21
-64 -90 -101 -135 -72 -53 35 -37 137 27 176 42 25 63 25 88 0z"/>
<path d="M2230 635 c0 -3 -9 -47 -21 -98 -27 -125 -27 -166 1 -189 12 -10 33
-18 47 -18 26 0 78 23 106 48 15 14 17 13 17 -6 0 -12 10 -27 22 -33 18 -10
24 -8 35 7 8 10 11 30 8 44 -3 14 4 66 15 115 26 121 26 135 -4 135 -28 0 -27
0 -52 -118 -19 -88 -45 -124 -100 -138 -54 -14 -65 26 -39 143 9 37 18 78 20
91 5 19 1 22 -25 22 -16 0 -30 -2 -30 -5z"/>
<path d="M2625 628 c-3 -7 -16 -67 -30 -133 -14 -66 -28 -128 -31 -137 -4 -15
1 -18 25 -18 24 0 32 5 36 23 3 12 12 54 21 92 16 74 32 98 77 122 33 16 64
10 72 -16 3 -11 -3 -61 -15 -112 -11 -51 -20 -97 -20 -101 0 -4 13 -8 28 -8
29 0 29 1 51 108 13 59 21 120 19 137 -7 62 -95 72 -159 18 l-31 -26 4 29 c2
24 -1 30 -20 32 -12 2 -24 -3 -27 -10z"/>
<path d="M3061 623 c-19 -10 -48 -35 -65 -56 -25 -31 -31 -49 -34 -101 -4 -59
-2 -66 26 -97 35 -40 81 -43 137 -10 35 20 35 20 35 0 0 -88 -111 -136 -183
-79 -23 19 -25 19 -41 1 -15 -16 -14 -19 9 -41 58 -55 199 -29 245 45 15 24
90 317 90 351 0 2 -11 4 -25 4 -20 0 -27 -6 -32 -31 l-6 -31 -21 27 c-28 35
-88 43 -135 18z m107 -53 c29 -27 31 -53 10 -118 -10 -35 -58 -72 -91 -72 -34
0 -67 45 -67 91 0 35 6 48 39 80 44 44 76 50 109 19z"/>
<path d="M3995 621 c-110 -50 -147 -189 -69 -262 37 -35 116 -33 173 4 23 15
41 31 41 36 0 18 -43 19 -62 1 -44 -41 -108 -30 -124 20 -7 19 -10 38 -7 43 2
4 34 7 71 7 113 0 171 49 142 119 -21 52 -92 66 -165 32z"/>
<path d="M4347 619 c-49 -26 -86 -84 -93 -145 -13 -122 94 -185 186 -108 l30
26 0 -25 c0 -26 20 -40 45 -31 16 6 19 21 16 65 -1 14 7 67 19 117 11 51 20
96 20 102 0 5 -13 10 -30 10 -23 0 -30 -4 -30 -20 0 -11 -4 -20 -10 -20 -5 0
-10 4 -10 10 0 14 -55 40 -82 40 -13 -1 -40 -10 -61 -21z m120 -55 c22 -22 24
-30 19 -72 -11 -78 -82 -131 -136 -102 -55 30 -38 149 28 184 39 22 60 19 89
-10z"/>
<path d="M4686 512 c-15 -70 -29 -137 -32 -150 -6 -19 -2 -22 24 -22 29 0 30
2 46 78 9 42 21 87 26 100 11 24 65 62 91 62 15 0 36 46 26 56 -8 8 -62 -18
-87 -42 l-26 -24 4 35 c4 32 2 35 -20 35 -24 0 -26 -6 -52 -128z"/>
</g>
</svg>
